<svg width="141" height="174" viewBox="0 0 141 174" fill="none" xmlns="http://www.w3.org/2000/svg">
<circle opacity="0.08" cx="62.6626" cy="63.2136" r="62.5" fill="#3284FF"/>
<g opacity="0.3">
<path d="M93.2017 68.6863L57.282 86.4189C56.6078 86.7482 56.1771 87.4348 56.1714 88.1898V123.385C56.1714 131.729 61.7521 142.344 68.5935 147.048L92.9544 163.797C93.6219 164.253 94.4976 164.253 95.1641 163.797L119.533 147.049C126.375 142.344 131.957 131.729 131.957 123.385V88.2427C131.951 87.4888 131.521 86.8031 130.849 86.4728L94.9311 68.6872C94.3858 68.4186 93.7479 68.4186 93.2017 68.6863V68.6863ZM128.045 89.4715V123.385C128.045 130.336 123.031 139.87 117.33 143.789L94.0717 159.78L70.8013 143.789C65.1012 139.87 60.0829 130.336 60.0829 123.385V89.4195L94.0602 72.6546L128.045 89.4715Z" fill="#818181"/>
<path d="M138.897 81.428L94.9446 59.6683C94.3984 59.3996 93.7595 59.3996 93.2133 59.6683L49.2375 81.3683C48.5576 81.6947 48.1193 82.3804 48.104 83.1392V123.386C48.104 134.271 55.1277 147.604 64.0508 153.738L92.9459 173.597C93.6153 174.055 94.4929 174.055 95.1623 173.597L124.075 153.739C132.999 147.604 140.024 134.271 140.024 123.386V83.1989C140.011 82.441 139.574 81.7564 138.897 81.428V81.428ZM136.113 123.386C136.113 133.102 129.839 145.003 121.872 150.48L94.0804 169.581L66.2634 150.479C58.2982 145.004 52.0155 133.102 52.0155 123.386V84.3689L94.0651 63.6356L136.114 84.4266L136.113 123.386Z" fill="#818181"/>
<path d="M78.7284 109.477C77.9682 108.702 76.7296 108.697 75.9619 109.463L70.4031 115.014C69.6362 115.78 69.6295 117.028 70.3897 117.802L87.1711 134.871C87.5388 135.24 88.0382 135.444 88.5568 135.439H88.5615C89.0772 135.445 89.5757 135.243 89.9443 134.879L117.732 106.867C118.099 106.498 118.306 105.997 118.306 105.475C118.306 104.952 118.099 104.451 117.732 104.082L112.201 98.5067C111.437 97.7364 110.198 97.7364 109.434 98.5067L88.595 119.521L78.7284 109.477ZM110.818 102.694L113.583 105.482L88.5682 130.707L74.5457 116.428L77.3246 113.653L87.1988 123.734C87.5617 124.114 88.0602 124.335 88.5835 124.345H88.5883C89.1106 124.335 89.6072 124.118 89.9711 123.741L110.818 102.694Z" fill="#818181"/>
</g>
</svg>
