<svg width="169" height="152" viewBox="0 0 169 152" fill="none" xmlns="http://www.w3.org/2000/svg">
<circle opacity="0.08" cx="62.6025" cy="63.4102" r="62.5" fill="#3284FF"/>
<g opacity="0.3">
<path d="M163.262 106.494L149.846 93.9347C146.98 91.24 143.209 89.7372 139.29 89.7259H132.009V88.054C132.022 85.1244 130.877 82.3114 128.829 80.2337C126.782 78.1561 123.997 76.9867 121.092 76.982H101.248V66.0283C101.234 65.2891 100.809 64.6213 100.147 64.3019L76.9285 52.8101C76.3957 52.548 75.7726 52.548 75.2398 52.8101L52.0192 64.2691C51.3616 64.5903 50.9406 65.259 50.9341 65.9964V87.2491C50.9341 93.359 54.687 100.563 59.6955 104.006L60.4723 104.559V139.307C60.4723 140.369 61.4001 141.182 62.4535 141.182H69.8438C70.6337 146.803 75.2743 151.063 80.8975 151.328C81.0792 151.336 81.2599 151.352 81.4406 151.352C84.3598 151.35 87.1728 150.242 89.3199 148.247C91.3197 146.39 92.6247 143.895 93.015 141.182H135.909C136.732 146.997 141.669 151.317 147.494 151.317C153.318 151.317 158.257 146.997 159.078 141.182H166.322C166.826 141.195 167.314 141.003 167.676 140.651C168.039 140.299 168.247 139.815 168.254 139.307V117.985C168.244 113.622 166.435 109.459 163.262 106.494V106.494ZM160.657 109.301C160.88 109.495 161.089 109.703 161.286 109.924H146.967C146.763 109.942 146.582 109.794 146.555 109.59V96.2462C146.788 96.4153 147.01 96.5975 147.223 96.7929L160.657 109.301ZM54.7494 87.2491V67.1958L76.0912 56.6789L97.4329 67.2259V87.2491C97.4329 92.0374 94.2045 98.1295 90.2774 100.828L76.0865 110.578L61.89 100.829C57.9639 98.1295 54.7494 92.0384 54.7494 87.2491ZM74.9576 114.495C75.2808 114.713 75.6618 114.83 76.0502 114.83C76.4367 114.83 76.8149 114.713 77.1353 114.495L92.4226 104.009C97.4329 100.564 101.248 93.3599 101.248 87.2491V80.8292H121.092C122.986 80.832 124.8 81.5966 126.133 82.9529C127.466 84.3092 128.208 86.1445 128.194 88.054V114.973H64.2876V107.183L74.9576 114.495ZM89.3087 139.924C89.1382 143.715 86.3364 146.856 82.6152 147.427C78.8949 147.998 75.2929 145.839 74.0121 142.271C72.7304 138.703 74.1276 134.719 77.3477 132.756C80.5678 130.793 84.7156 131.397 87.2529 134.199C88.6688 135.754 89.4093 137.815 89.3087 139.924ZM81.9585 127.774C78.8604 127.615 75.8266 128.714 73.5361 130.824C71.6769 132.552 70.4129 134.833 69.9258 137.335H64.2876V118.82H128.194V137.335H92.9321C92.5381 135.182 91.5461 133.186 90.0706 131.581C87.9804 129.269 85.0584 127.898 81.9585 127.774ZM147.494 147.518C143.137 147.518 139.605 143.956 139.605 139.563C139.605 135.17 143.137 131.609 147.494 131.609C151.85 131.609 155.382 135.17 155.382 139.563C155.378 143.954 151.848 147.513 147.494 147.518ZM164.439 137.335H158.994C157.955 131.756 153.124 127.713 147.494 127.713C141.864 127.713 137.032 131.756 135.994 137.335H132.009V93.5731H139.289C140.466 93.5872 141.632 93.7985 142.74 94.1987V109.591C142.769 111.92 144.657 113.787 146.967 113.771H163.652C164.153 115.12 164.419 116.546 164.439 117.985V137.335Z" fill="#818181"/>
<path d="M71.8146 91.0366C72.1676 91.4132 72.6529 91.633 73.1652 91.6499H73.1699C73.6812 91.6339 74.1656 91.416 74.5186 91.0441L86.2579 79.185C87.0068 78.4336 87.0105 77.2125 86.2663 76.4564C85.5211 75.7003 84.3093 75.6975 83.5594 76.448L73.1764 86.916L68.5842 82.2385C67.8437 81.4833 66.6356 81.4777 65.8867 82.2244C65.1378 82.9805 65.1322 84.2034 65.8737 84.9661L71.8146 91.0366Z" fill="#818181"/>
</g>
</svg>
