<svg width="152" height="158" viewBox="0 0 152 158" fill="none" xmlns="http://www.w3.org/2000/svg">
<circle opacity="0.08" cx="63.0713" cy="63.3455" r="62.5" fill="#3284FF"/>
<g opacity="0.3">
<path d="M138.795 67.053H112.65V60.9822C112.65 55.3278 108.116 50.5945 102.509 50.5945H77.9994C72.3344 50.6524 67.7554 55.2698 67.6979 60.9822V67.053H41.5531C34.4719 67.053 28.6323 72.8339 28.6323 79.9755V144.894C28.6323 152.036 34.4719 157.979 41.5531 157.979H138.795C145.876 157.979 151.716 152.036 151.716 144.894V79.9755C151.716 72.8339 145.876 67.053 138.795 67.053ZM71.979 60.9822C72.0344 57.6528 74.6976 54.9673 77.9994 54.9115H102.509C105.755 54.9115 108.369 57.7086 108.369 60.9822V67.053H71.979V60.9822ZM147.167 145.028C147.167 149.797 143.333 153.662 138.605 153.662H41.4758C36.7473 153.662 32.9135 149.797 32.9135 145.028V80.0039C32.9135 75.2358 36.7473 71.37 41.4758 71.37H138.605C143.333 71.37 147.167 75.2358 147.167 80.0039V145.028Z" fill="#818181"/>
<path d="M90.174 92.9473C78.3402 92.9599 68.7494 102.631 68.7358 114.564C68.7358 115.649 69.5344 116.565 70.6026 116.705C71.6697 116.845 72.6731 116.163 72.947 115.113C73.1236 114.436 73.5229 113.444 73.7957 113.108C74.3141 112.623 74.9935 112.35 75.7011 112.344C76.4055 112.338 77.0839 112.607 77.596 113.095C78.0956 113.622 78.3778 114.321 78.3852 115.051C78.3852 116.243 79.3436 117.209 80.5257 117.209C81.7079 117.209 82.6663 116.243 82.6663 115.051C82.6496 114.328 82.9266 113.63 83.4335 113.119C83.9404 112.608 84.6334 112.327 85.3494 112.344C86.0538 112.338 86.7332 112.607 87.2443 113.095C87.7439 113.622 88.0261 114.321 88.0334 115.051V129.652C88.0334 129.954 87.792 130.197 87.4941 130.197C87.1952 130.197 86.9537 129.954 86.9537 129.652C86.9537 128.46 85.9953 127.494 84.8132 127.494C83.631 127.494 82.6726 128.46 82.6726 129.652C82.6726 132.338 84.8309 134.514 87.4941 134.514C90.1563 134.514 92.3146 132.338 92.3146 129.652V115.051C92.2979 114.328 92.5759 113.63 93.0828 113.119C93.5887 112.608 94.2817 112.327 94.9976 112.344C95.7021 112.338 96.3815 112.607 96.8926 113.095C97.3922 113.623 97.6744 114.321 97.6817 115.051C97.6817 116.243 98.6402 117.209 99.8223 117.209C101.004 117.209 101.963 116.243 101.963 115.051C101.946 114.328 102.224 113.63 102.731 113.119C103.238 112.608 103.93 112.327 104.647 112.344C105.348 112.338 106.025 112.606 106.536 113.089C106.808 113.406 107.214 114.407 107.401 115.113C107.675 116.163 108.678 116.845 109.745 116.705C110.813 116.565 111.612 115.649 111.611 114.564C111.599 102.631 102.008 92.9599 90.174 92.9473V92.9473ZM104.647 108.027C102.858 108.035 101.136 108.721 99.8244 109.949C98.5168 108.712 96.7912 108.024 94.9976 108.027C93.2083 108.035 91.4868 108.721 90.1761 109.949C88.8686 108.712 87.1419 108.025 85.3494 108.027C83.56 108.035 81.8385 108.721 80.5268 109.949C79.2203 108.712 77.4936 108.025 75.7011 108.027C75.2046 108.027 74.7102 108.081 74.2253 108.186C76.8174 101.594 83.1388 97.2642 90.1719 97.2632C97.2062 97.2632 103.528 101.592 106.122 108.184C105.637 108.08 105.142 108.027 104.647 108.027Z" fill="#818181"/>
<path d="M90.1738 82.1455C72.8746 82.1455 58.8511 96.2864 58.8511 113.73C58.8511 131.174 72.8746 145.315 90.1738 145.315C107.473 145.315 121.496 131.174 121.496 113.73C121.477 96.2948 107.465 82.1655 90.1738 82.1455ZM90.1738 140.998C75.2388 140.998 63.1322 128.79 63.1322 113.73C63.1322 98.6704 75.2388 86.4625 90.1738 86.4625C105.109 86.4625 117.215 98.6704 117.215 113.73C117.199 128.783 105.101 140.981 90.1738 140.998Z" fill="#818181"/>
</g>
</svg>
