<svg width="126" height="155" viewBox="0 0 126 155" fill="none" xmlns="http://www.w3.org/2000/svg">
<g opacity="0.3">
<path d="M123.075 78.7155C123.075 78.6955 123.055 78.6555 123.055 78.6356C123.055 78.5956 123.036 78.5756 123.036 78.5357C123.036 78.5157 123.016 78.4758 123.016 78.4558C123.016 78.4358 122.996 78.3959 122.976 78.3759C122.956 78.3559 122.956 78.316 122.937 78.296C122.917 78.276 122.917 78.2361 122.897 78.2161C122.877 78.1961 122.877 78.1562 122.857 78.1362C122.837 78.0962 122.818 78.0563 122.778 78.0163C122.758 77.9964 122.758 77.9764 122.738 77.9564C122.719 77.9165 122.679 77.8765 122.659 77.8565L106.356 57.4578C106.317 57.3979 106.257 57.358 106.217 57.298C106.198 57.2781 106.198 57.278 106.178 57.278C106.138 57.2381 106.099 57.1982 106.059 57.1582C106.039 57.1382 106.019 57.1382 106 57.1183C105.96 57.0983 105.92 57.0583 105.881 57.0383C105.861 57.0184 105.841 57.0184 105.821 56.9984C105.782 56.9784 105.742 56.9584 105.702 56.9385C105.683 56.9185 105.663 56.9185 105.643 56.8985C105.603 56.8786 105.564 56.8586 105.504 56.8386C105.485 56.8386 105.465 56.8186 105.445 56.8186C105.405 56.7987 105.346 56.7986 105.306 56.7787C105.286 56.7787 105.267 56.7587 105.247 56.7587C105.187 56.7387 105.148 56.7387 105.088 56.7387C105.069 56.7387 105.049 56.7387 105.029 56.7387C104.95 56.7387 104.89 56.7188 104.811 56.7188H52.0787C50.9892 56.7188 50.0978 57.6178 50.0978 58.7167V66.928H43.8579C42.7684 66.928 41.877 67.8271 41.877 68.9259V152.199C41.877 153.298 42.7684 154.197 43.8579 154.197H113.032C114.121 154.197 115.013 153.298 115.013 152.199V143.987H121.114C122.204 143.987 123.095 143.088 123.095 141.989V79.095C123.095 79.0351 123.095 78.9751 123.095 78.9152C123.095 78.8952 123.095 78.8753 123.095 78.8353C123.095 78.7954 123.095 78.7554 123.075 78.7155ZM106.792 64.3504L116.974 77.0971H106.792V64.3504ZM103.405 80.3736L108.872 87.1665H98.7098V74.5397L103.147 80.054C103.226 80.1739 103.306 80.2737 103.405 80.3736ZM54.0597 60.6942H102.83V73.301L98.274 67.6469C98.2344 67.587 98.1749 67.547 98.1353 67.4871C98.1155 67.4671 98.1155 67.4671 98.0957 67.4471C98.0561 67.4072 98.0165 67.3872 97.9768 67.3473C97.957 67.3273 97.9372 67.3273 97.9174 67.3073C97.8778 67.2873 97.8382 67.2474 97.7985 67.2274C97.7787 67.2074 97.7589 67.2074 97.7391 67.1875C97.6995 67.1675 97.6599 67.1475 97.6203 67.1275C97.6005 67.1076 97.5807 67.1076 97.5608 67.1076C97.5212 67.0876 97.4618 67.0676 97.4222 67.0476C97.4024 67.0476 97.3826 67.0277 97.3627 67.0277C97.3231 67.0077 97.2637 67.0077 97.2241 66.9877C97.2043 66.9877 97.1845 66.9678 97.1647 66.9678C97.1052 66.9478 97.0656 66.9478 97.0062 66.9478C96.9864 66.9478 96.9666 66.9478 96.9468 66.9478C96.8675 66.9478 96.8081 66.9278 96.7288 66.9278H54.0597V60.6942ZM45.8388 150.201V70.9036H94.7479V89.1646C94.7479 90.2634 95.6393 91.1625 96.7288 91.1625H111.051V150.201H45.8388V150.201ZM119.133 140.011H115.013V139.991V89.1444C115.013 89.0845 115.013 89.0246 115.013 88.9647C115.013 88.9447 115.013 88.9247 115.013 88.8848C115.013 88.8448 115.013 88.8049 114.993 88.7649C114.993 88.7449 114.973 88.705 114.973 88.685C114.973 88.6451 114.953 88.6251 114.953 88.5851C114.953 88.5452 114.934 88.5252 114.934 88.5052C114.934 88.4853 114.914 88.4453 114.894 88.4253C114.874 88.4054 114.874 88.3654 114.854 88.3454C114.835 88.3255 114.835 88.2855 114.815 88.2655C114.795 88.2456 114.795 88.2056 114.775 88.1856C114.755 88.1457 114.735 88.1057 114.716 88.0858C114.696 88.0658 114.696 88.0458 114.676 88.0458C114.636 88.0059 114.617 87.9459 114.577 87.906L109.11 81.1131H119.133V140.011Z" fill="#818181"/>
<path d="M98.7099 99.334H58.1801C57.0906 99.334 56.1992 100.233 56.1992 101.332C56.1992 102.431 57.0906 103.33 58.1801 103.33H98.7099C99.7994 103.33 100.691 102.431 100.691 101.332C100.691 100.233 99.7994 99.334 98.7099 99.334Z" fill="#818181"/>
<path d="M98.7099 111.521H58.1801C57.0906 111.521 56.1992 112.42 56.1992 113.519C56.1992 114.618 57.0906 115.517 58.1801 115.517H98.7099C99.7994 115.517 100.691 114.618 100.691 113.519C100.691 112.42 99.7994 111.521 98.7099 111.521Z" fill="#818181"/>
<path d="M98.7099 123.708H58.1801C57.0906 123.708 56.1992 124.608 56.1992 125.706C56.1992 126.805 57.0906 127.704 58.1801 127.704H98.7099C99.7994 127.704 100.691 126.805 100.691 125.706C100.691 124.608 99.7994 123.708 98.7099 123.708Z" fill="#818181"/>
<path d="M98.7099 135.896H58.1801C57.0906 135.896 56.1992 136.795 56.1992 137.893C56.1992 138.992 57.0906 139.891 58.1801 139.891H98.7099C99.7994 139.891 100.691 138.992 100.691 137.893C100.691 136.795 99.7994 135.896 98.7099 135.896Z" fill="#818181"/>
</g>
<circle opacity="0.08" cx="63.4248" cy="63.1133" r="62.5" fill="#3284FF"/>
</svg>
