<?xml version="1.0" standalone="no"?>
<!DOCTYPE svg PUBLIC "-//W3C//DTD SVG 20010904//EN"
 "http://www.w3.org/TR/2001/REC-SVG-20010904/DTD/svg10.dtd">
<svg version="1.0" xmlns="http://www.w3.org/2000/svg"
 width="1280.000000pt" height="1280.000000pt" viewBox="0 0 1280.000000 1280.000000"
 preserveAspectRatio="xMidYMid meet">
<metadata>
Created by potrace 1.14, written by Peter Selinger 2001-2017
</metadata>
<g transform="translate(0.000000,1280.000000) scale(0.100000,-0.100000)"
fill="#000000" stroke="none">
<path d="M6060 10780 c-509 -43 -990 -166 -1458 -374 -1129 -503 -1999 -1473
-2380 -2656 -90 -277 -133 -466 -172 -750 -159 -1163 151 -2337 864 -3270 652
-854 1602 -1440 2661 -1644 451 -86 996 -100 1440 -35 964 140 1825 574 2509
1264 610 615 1025 1403 1190 2260 163 849 65 1762 -276 2550 -302 700 -750
1279 -1351 1748 -474 370 -1050 647 -1647 793 -358 87 -577 114 -970 119 -168
2 -352 0 -410 -5z m780 -114 c505 -54 963 -185 1430 -408 1238 -592 2130
-1783 2359 -3148 42 -245 55 -415 55 -710 0 -581 -90 -1051 -306 -1598 -346
-878 -1009 -1641 -1843 -2122 -516 -298 -1119 -489 -1740 -552 -188 -19 -641
-16 -833 5 -530 59 -989 192 -1457 422 -1092 536 -1891 1496 -2231 2679 -68
237 -119 510 -146 781 -16 165 -16 600 0 770 124 1293 802 2441 1867 3164 598
406 1316 662 2020 720 72 6 148 13 170 15 81 8 524 -4 655 -18z"/>
<path d="M6160 10529 c-355 -22 -727 -95 -1080 -212 -903 -301 -1677 -910
-2197 -1730 -35 -54 -63 -101 -63 -103 0 -2 -11 -21 -24 -42 -46 -73 -159
-299 -216 -432 -172 -404 -285 -850 -321 -1275 -16 -180 -16 -550 0 -730 42
-500 174 -979 397 -1443 352 -734 902 -1338 1612 -1769 142 -86 453 -238 627
-306 512 -201 1055 -297 1600 -284 504 13 923 93 1375 262 984 370 1785 1086
2257 2019 220 437 354 870 418 1358 115 876 -64 1790 -500 2565 -336 596 -784
1074 -1365 1455 -740 485 -1637 722 -2520 667z m561 -109 c709 -51 1420 -304
2011 -715 366 -254 765 -653 1011 -1010 323 -469 551 -1004 656 -1545 58 -299
65 -382 66 -780 0 -398 -9 -501 -66 -785 -196 -973 -719 -1821 -1498 -2429
-597 -465 -1336 -760 -2086 -830 -339 -31 -564 -29 -895 9 -707 83 -1399 363
-1970 798 -222 170 -486 423 -669 642 -563 675 -895 1543 -930 2428 -26 694
117 1364 423 1977 212 424 436 733 781 1076 627 623 1409 1009 2305 1139 228
33 598 44 861 25z"/>
<path d="M6140 8135 c0 -30 5 -55 10 -55 6 0 10 -11 10 -25 0 -22 4 -25 40
-25 l40 0 0 -199 0 -200 -47 -3 -48 -3 -3 -57 c-2 -33 1 -58 7 -58 5 0 11 -10
13 -22 l3 -23 275 0 274 0 35 94 c31 86 33 95 17 106 -9 7 -14 19 -10 28 4 11
-8 19 -46 32 -28 9 -53 15 -55 13 -2 -1 -12 -26 -23 -53 l-20 -50 -108 0 -108
0 -1 55 0 55 98 3 97 3 0 59 c0 33 -4 60 -10 60 -5 0 -10 11 -10 25 0 25 -1
25 -85 25 -49 0 -85 4 -86 10 0 6 -1 29 -1 53 l-1 42 100 3 100 3 24 -61 c13
-33 28 -60 33 -60 24 0 96 34 96 44 0 15 -53 170 -70 209 l-13 27 -264 0 -263
0 0 -55z"/>
<path d="M7002 8117 c-6 -24 -9 -60 -5 -80 5 -32 10 -37 40 -43 34 -6 34 -7
28 -48 -4 -22 -15 -77 -25 -121 -10 -44 -26 -115 -35 -158 l-17 -78 -36 7
c-20 4 -41 7 -46 8 -13 2 -38 -86 -30 -104 4 -8 6 -22 5 -31 -2 -18 6 -20 256
-74 207 -45 287 -34 340 46 24 36 28 53 28 108 0 47 -6 78 -21 108 l-21 42 27
19 c54 40 74 127 50 214 -24 86 -103 136 -272 173 -99 23 -251 55 -254 55 -1
0 -7 -19 -12 -43z m334 -188 c18 -5 39 -18 49 -29 15 -17 16 -24 6 -48 -19
-44 -51 -55 -125 -41 -33 7 -62 13 -64 14 -2 2 3 31 9 64 l13 62 41 -6 c22 -4
54 -11 71 -16z m-31 -278 c39 -12 51 -21 53 -39 5 -33 -22 -69 -57 -77 -30 -6
-148 12 -156 24 -4 7 10 80 20 109 6 16 61 9 140 -17z"/>
<path d="M5526 8089 c-120 -27 -220 -50 -222 -51 -7 -8 20 -104 32 -111 8 -4
14 -15 14 -23 0 -13 8 -14 39 -9 33 5 40 3 45 -12 9 -29 65 -294 72 -339 l6
-41 -42 -6 c-23 -3 -44 -7 -46 -10 -9 -9 18 -106 32 -111 8 -3 14 -12 14 -21
0 -20 8 -19 147 10 303 64 358 87 389 160 37 89 5 205 -75 278 -59 53 -107 63
-211 42 -47 -9 -92 -18 -100 -19 -18 -1 -44 103 -27 109 33 11 137 35 152 35
10 0 32 -17 50 -37 l32 -37 47 24 c25 14 46 28 46 31 0 11 -76 144 -95 167
-26 30 -41 28 -299 -29z m312 -398 c7 -4 14 -23 14 -41 2 -54 -57 -92 -156
-102 -28 -3 -30 0 -42 52 -7 30 -9 58 -6 62 9 9 119 36 152 37 14 0 31 -3 38
-8z"/>
<path d="M5972 7331 c-6 -4 -18 -25 -25 -46 -11 -32 -20 -41 -43 -45 -23 -4
-30 -12 -37 -40 -4 -19 -13 -60 -20 -90 l-12 -55 -150 -5 c-144 -5 -150 -6
-160 -27 -7 -17 -18 -23 -42 -23 -17 0 -35 -6 -40 -12 -4 -7 -8 -79 -9 -161
-3 -162 2 -177 55 -177 16 0 34 -7 42 -16 10 -13 33 -15 126 -12 112 3 114 3
119 28 10 48 24 69 46 75 128 28 609 42 870 26 293 -19 313 -24 327 -91 l6
-32 116 -5 c97 -4 117 -2 128 11 8 9 24 16 36 16 55 0 55 0 55 175 0 175 0
175 -54 175 -15 0 -27 9 -34 25 l-12 25 -149 0 c-165 0 -155 -5 -166 76 -12
87 -23 112 -53 116 -20 2 -30 11 -37 34 -17 52 -55 86 -55 49 0 -9 -7 -29 -15
-45 l-16 -30 -369 0 -370 0 -20 32 c-10 17 -17 35 -14 39 7 11 -10 19 -24 10z
m881 -106 c20 -5 26 -17 36 -61 7 -29 9 -59 5 -65 -4 -7 3 -20 17 -30 24 -19
23 -19 -81 -11 -135 9 -735 9 -862 0 -54 -4 -98 -4 -98 1 0 5 9 11 21 14 12 3
18 10 14 17 -10 17 5 109 21 125 12 11 91 14 459 15 244 0 455 -2 468 -5z
m-1029 -203 c3 -5 -10 -89 -28 -188 l-33 -179 -97 -8 c-99 -9 -119 -6 -98 15
8 8 12 60 12 164 0 144 -1 154 -21 168 -40 28 -12 36 126 36 74 0 136 -4 139
-8z m1422 -4 c4 -6 0 -16 -9 -23 -15 -10 -17 -35 -17 -167 0 -105 4 -158 12
-166 21 -21 1 -24 -98 -15 l-98 8 -33 175 c-18 96 -31 180 -28 187 6 17 260
18 271 1z"/>
<path d="M6128 7333 c7 -3 16 -2 19 1 4 3 -2 6 -13 5 -11 0 -14 -3 -6 -6z"/>
<path d="M4490 7040 c-137 -8 -214 -22 -226 -41 -4 -8 6 -9 32 -5 156 26 604
36 604 14 0 -7 -7 -35 -15 -62 -8 -27 -13 -51 -11 -53 2 -3 17 19 33 48 39 72
50 77 106 49 26 -13 47 -26 47 -29 0 -3 7 -51 14 -106 18 -125 22 -182 14
-191 -4 -3 -58 7 -120 22 -112 29 -117 29 -493 34 l-380 5 3 45 2 45 -14 -31
c-7 -17 -17 -44 -20 -60 l-7 -29 366 3 c329 2 366 1 372 -14 3 -10 -3 -25 -18
-39 -22 -21 -34 -23 -184 -29 -88 -3 -250 -6 -360 -6 l-201 0 -22 -113 c-12
-62 -22 -121 -22 -130 0 -16 30 -17 373 -17 283 0 377 3 390 13 18 13 36 118
37 213 0 43 5 55 30 79 l30 29 63 -13 c34 -7 66 -16 71 -21 5 -5 14 -6 21 -4
7 3 31 1 52 -5 l40 -11 7 -76 c9 -110 7 -547 -2 -562 -6 -9 -19 -10 -48 -4
l-39 8 2 254 c2 140 -1 275 -6 300 -5 27 -6 -37 -4 -160 3 -113 1 -245 -4
-295 l-8 -90 -56 2 -55 3 4 -93 c2 -50 7 -96 11 -100 4 -4 69 -9 144 -10 116
-2 137 -4 134 -17 -2 -13 -23 -14 -137 -12 -74 2 -143 6 -152 8 -15 5 -18 18
-18 82 0 107 -14 152 -45 152 -14 0 -34 -9 -45 -20 -22 -22 -61 -40 -86 -40
-10 0 -14 13 -14 51 0 42 -3 52 -20 56 -11 3 -20 9 -20 14 0 11 66 53 98 63
13 5 22 9 20 12 -6 5 -119 -26 -153 -43 -51 -26 -103 -83 -116 -129 -17 -57
-42 -60 -33 -5 3 21 11 83 18 137 11 97 12 99 42 115 32 15 32 15 -45 15 -42
0 -150 1 -241 3 -91 1 -196 -3 -234 -9 -53 -8 -71 -8 -77 1 -17 28 -29 -37
-30 -168 -1 -76 -4 -126 -6 -112 -2 14 -21 43 -42 63 -46 45 -58 37 -63 -48
l-3 -59 58 -12 c31 -6 63 -17 69 -23 18 -18 510 -17 546 2 26 13 290 52 298
44 7 -8 -18 -183 -28 -196 -9 -10 -108 -12 -474 -10 -255 2 -464 2 -464 0 0
-1 6 -13 14 -25 8 -12 16 -40 18 -62 l3 -40 -210 -5 c-208 -5 -210 -5 -213
-27 l-3 -23 183 -1 c285 0 5740 0 5856 0 101 1 103 1 100 24 l-3 22 -275 5
-275 5 3 40 c2 22 10 50 18 62 8 12 14 24 14 25 0 2 -209 2 -464 0 -367 -2
-465 0 -473 10 -10 12 -35 189 -28 196 7 8 272 -32 297 -44 37 -19 519 -20
551 -1 12 6 45 17 72 22 l50 11 -3 59 c-4 83 -16 94 -59 53 -18 -18 -38 -46
-42 -63 -7 -21 -10 14 -10 115 -1 140 -10 191 -30 162 -6 -11 -20 -11 -68 -3
-66 12 -323 16 -424 6 -35 -4 -83 -2 -106 3 -53 12 -54 8 -5 -15 37 -18 37
-18 48 -103 6 -47 14 -109 18 -139 10 -65 -9 -68 -31 -6 -26 75 -93 127 -207
159 -61 18 -89 16 -36 -2 17 -6 44 -21 61 -33 l30 -21 -21 -20 c-14 -13 -21
-31 -20 -52 3 -57 3 -58 -32 -50 -18 3 -46 17 -62 31 -62 52 -94 8 -95 -129
-1 -91 10 -85 -181 -90 -105 -3 -125 -1 -127 12 -3 13 18 15 134 17 75 1 140
6 144 10 4 4 9 50 11 101 l4 93 -52 -7 -53 -6 -8 38 c-4 22 -8 154 -8 294 0
165 -3 232 -8 190 -4 -36 -6 -168 -5 -295 l3 -229 -35 -7 c-20 -5 -39 -3 -45
2 -12 12 -19 384 -10 527 8 111 9 113 73 127 30 6 32 5 33 -22 l1 -28 7 29 c5
26 13 32 56 43 28 7 60 13 73 13 33 0 80 -54 74 -85 -2 -14 1 -70 8 -125 10
-79 16 -103 31 -110 10 -6 167 -10 388 -10 339 0 371 1 371 17 0 9 -9 67 -21
128 l-21 112 -355 5 c-333 6 -357 7 -382 26 -14 10 -26 28 -26 38 0 18 14 19
373 19 244 0 371 3 368 10 -3 6 -10 27 -17 48 -15 47 -26 48 -21 2 l4 -35
-362 0 -362 0 -130 -30 c-71 -16 -134 -30 -139 -30 -5 0 -9 17 -9 38 0 59 29
254 40 267 6 7 28 20 50 30 40 18 41 18 60 -1 10 -10 30 -41 44 -69 25 -50 34
-44 17 11 -5 16 -12 41 -15 57 l-6 27 147 0 c163 0 401 -15 464 -29 33 -8 38
-7 28 5 -20 24 -80 35 -259 44 -283 15 -429 13 -497 -8 -32 -10 -96 -19 -143
-21 -90 -3 -112 -11 -191 -68 -42 -30 -49 -40 -49 -69 0 -39 12 -42 55 -14 39
26 62 25 68 -2 10 -42 11 -868 1 -877 -5 -4 -62 -18 -126 -31 l-118 -23 0 -67
c0 -53 -4 -72 -20 -90 -11 -13 -20 -36 -20 -52 l0 -28 89 0 89 0 6 -31 c14
-73 19 -70 -111 -67 -99 3 -117 5 -114 18 2 8 7 49 13 90 5 41 13 80 19 86 7
9 -82 13 -368 19 -414 8 -1293 4 -1293 -6 0 -4 6 -9 13 -12 9 -3 16 -29 20
-69 3 -34 9 -78 13 -95 l7 -33 -116 0 c-64 0 -118 4 -121 8 -2 4 -2 27 1 50
l6 42 93 0 94 0 -7 33 c-3 17 -15 43 -25 57 -15 19 -19 38 -17 84 3 69 15 61
-135 90 l-111 21 -3 370 c-2 204 0 407 3 453 8 94 12 97 80 57 47 -27 55 -25
55 16 0 22 -11 37 -52 68 -80 59 -105 68 -208 74 -52 3 -115 13 -139 21 -48
18 -262 20 -521 6z m320 -1254 c8 -37 5 -135 -6 -168 -8 -27 -33 -22 -41 10
-13 46 -9 178 7 196 17 21 29 9 40 -38z m3227 -37 c5 -65 -10 -149 -27 -149
-19 0 -30 41 -30 114 0 41 5 87 10 102 10 25 12 26 26 12 10 -10 18 -41 21
-79z m-2782 38 c3 -12 5 -58 3 -102 -2 -65 -6 -80 -20 -83 -14 -3 -16 9 -16
95 1 54 3 101 5 106 8 14 23 7 28 -16z m96 -8 c18 -62 6 -179 -17 -179 -11 0
-14 23 -14 106 0 79 3 105 12 102 7 -3 15 -15 19 -29z m2120 19 c0 -7 0 -53 0
-102 0 -93 -14 -132 -28 -80 -10 35 -10 152 -1 177 8 20 28 23 29 5z m97 -88
c3 -110 -2 -135 -24 -106 -9 13 -14 45 -14 90 0 82 8 118 24 113 7 -2 12 -39
14 -97z m-703 45 c25 -4 48 -11 51 -16 3 -5 13 -9 23 -9 16 0 19 -10 23 -62 3
-35 3 -66 1 -70 -2 -5 -258 -8 -569 -8 -530 0 -564 1 -564 18 0 9 3 40 6 69
l7 51 51 15 c28 9 60 17 70 19 38 6 856 -1 901 -7z m-1842 -112 c2 -21 1 -42
-3 -46 -4 -4 -49 -6 -101 -5 -102 3 -110 8 -90 61 10 26 12 27 100 27 l89 0 5
-37z m2938 10 c20 -54 13 -58 -96 -58 l-100 0 3 30 c5 55 6 55 97 55 83 0 86
-1 96 -27z m-3340 -20 c3 -18 4 -35 1 -38 -3 -3 -144 -5 -314 -5 l-308 0 0 24
c0 59 -15 57 313 54 l301 -3 7 -32z m4167 -5 l3 -38 -310 0 -311 0 0 33 c0 19
3 37 7 40 4 4 142 6 307 5 l301 -3 3 -37z"/>
<path d="M4656 6824 c-11 -8 -16 -14 -10 -14 13 0 39 18 34 24 -3 2 -14 -2
-24 -10z"/>
<path d="M8127 6819 c7 -7 15 -10 18 -7 3 3 -2 9 -12 12 -14 6 -15 5 -6 -5z"/>
<path d="M4209 6807 c4 -4 61 -6 127 -5 l119 3 -127 5 c-70 3 -124 1 -119 -3z"/>
<path d="M8548 6803 c6 -2 18 -2 25 0 6 3 1 5 -13 5 -14 0 -19 -2 -12 -5z"/>
<path d="M5953 6633 c45 -47 45 -47 33 -296 -6 -144 -5 -191 4 -202 18 -21
786 -23 815 -2 17 13 18 24 6 225 -13 224 -12 231 32 280 11 12 17 22 13 22
-13 0 -62 -29 -75 -44 -12 -14 -59 -16 -379 -16 -349 0 -367 1 -386 20 -12 10
-39 26 -61 35 l-40 17 38 -39z"/>
<path d="M4836 6568 c-3 -18 -7 -76 -8 -128 -3 -89 -2 -95 18 -98 11 -2 32 2
47 7 27 10 27 11 27 109 0 107 -7 125 -52 136 -25 6 -28 3 -32 -26z"/>
<path d="M7912 6593 c-13 -3 -25 -10 -27 -16 -9 -30 -14 -203 -7 -215 5 -8 28
-16 52 -19 l43 -6 -8 124 c-7 123 -10 140 -23 138 -4 -1 -17 -4 -30 -6z"/>
<path d="M5652 6354 c-34 -24 -49 -60 -66 -170 -9 -56 -16 -106 -16 -113 0 -8
219 -11 830 -11 l830 0 -6 43 c-27 179 -43 230 -84 255 -18 12 -22 12 -12 2
20 -23 14 -30 -24 -30 -69 0 -84 -23 -99 -150 -4 -30 -9 -63 -11 -73 -5 -16
-40 -17 -597 -15 l-591 3 -18 105 c-19 117 -29 130 -90 130 -39 0 -46 8 -26
28 17 17 7 15 -20 -4z"/>
<path d="M5560 5960 l0 -70 136 0 136 0 -7 33 c-4 17 -11 49 -16 70 l-10 37
-119 0 -120 0 0 -70z"/>
<path d="M6995 6018 c-11 -35 -25 -95 -25 -110 0 -16 13 -18 135 -18 l135 0 0
70 0 70 -120 0 c-88 0 -122 -3 -125 -12z"/>
<path d="M5940 5950 c0 -22 3 -41 8 -41 39 -7 890 -5 897 1 6 5 12 25 13 45
l3 35 -461 0 -460 0 0 -40z"/>
<path d="M3920 5822 c0 -10 7 -28 16 -40 15 -22 19 -22 230 -22 215 0 215 0
239 25 14 13 25 31 25 40 0 13 -32 15 -255 15 -238 0 -255 -1 -255 -18z"/>
<path d="M8360 5825 c0 -9 11 -27 25 -40 24 -25 24 -25 240 -25 l215 0 20 33
c11 17 20 35 20 40 0 4 -117 7 -260 7 -228 0 -260 -2 -260 -15z"/>
<path d="M7865 5257 c-89 -30 -154 -85 -193 -163 -74 -147 -35 -390 80 -504
88 -86 247 -115 392 -69 74 22 76 25 97 130 9 48 10 64 1 67 -7 2 -12 12 -12
22 0 13 -11 22 -37 29 -64 18 -70 15 -83 -38 -10 -44 -15 -49 -49 -60 -66 -19
-139 -14 -188 14 -63 37 -78 72 -78 180 0 71 5 100 21 136 30 64 82 101 149
107 79 7 145 -5 145 -26 0 -9 7 -30 15 -46 8 -15 15 -35 15 -42 0 -17 8 -17
66 -3 31 8 44 17 44 29 0 30 -23 135 -31 145 -5 5 -9 17 -9 27 0 11 -19 27
-52 44 -45 23 -68 28 -153 31 -65 2 -114 -2 -140 -10z"/>
<path d="M4690 5136 c0 -66 4 -117 10 -121 6 -3 10 -15 10 -26 0 -18 6 -20 58
-17 l57 3 3 58 3 58 47 -3 47 -3 3 -194 c3 -214 4 -211 -60 -211 l-38 0 0 -55
c0 -30 5 -55 10 -55 6 0 10 -11 10 -25 l0 -25 165 0 165 0 0 60 c0 33 -4 60
-10 60 -5 0 -10 9 -10 19 0 16 -8 20 -37 23 l-38 3 0 200 0 200 48 3 47 3 0
-34 c0 -22 6 -37 15 -41 8 -3 15 -15 15 -26 0 -18 6 -20 55 -20 l55 0 0 114
c0 66 -4 117 -10 121 -5 3 -10 15 -10 26 0 18 -10 19 -305 19 l-305 0 0 -114z"/>
<path d="M5390 5195 c0 -40 4 -57 15 -61 8 -4 15 -15 15 -25 0 -15 7 -19 35
-19 l35 0 -2 -202 -3 -203 -47 -3 -48 -3 0 -53 c0 -39 4 -55 15 -60 8 -3 15
-15 15 -26 0 -19 6 -20 170 -20 l170 0 0 60 c0 33 -4 60 -10 60 -5 0 -10 9
-10 19 0 16 -8 20 -42 23 -40 3 -43 5 -46 34 l-3 31 88 7 c111 8 178 38 219
98 27 38 29 49 29 127 0 74 -4 93 -27 138 -58 110 -125 133 -385 133 l-183 0
0 -55z m416 -130 c44 -28 23 -118 -32 -144 -16 -7 -50 -15 -76 -18 l-48 -6 0
98 0 98 66 -6 c37 -4 77 -13 90 -22z"/>
<path d="M6197 5243 c-4 -3 -7 -28 -7 -55 0 -34 5 -50 15 -54 8 -4 15 -15 15
-25 0 -14 7 -19 25 -19 14 0 25 -2 25 -5 0 -6 -66 -178 -119 -310 l-36 -90
-55 -1 -55 -1 -3 -56 c-2 -35 1 -57 8 -57 5 0 10 -11 10 -25 l0 -25 150 0 150
0 0 60 c0 33 -4 60 -10 60 -5 0 -10 9 -10 19 0 10 -7 21 -15 25 -12 4 -13 10
-3 31 11 25 13 25 124 25 93 0 113 -3 118 -16 13 -33 6 -44 -24 -44 -30 0 -30
-1 -30 -54 0 -39 4 -55 15 -60 8 -3 15 -15 15 -26 0 -19 6 -20 145 -20 143 0
145 0 146 23 2 48 -3 92 -12 95 -5 2 -9 12 -9 23 0 16 -7 19 -44 19 -24 0 -48
6 -53 13 -5 6 -45 107 -88 222 -42 116 -89 238 -104 272 l-26 63 -126 0 c-69
0 -129 -3 -132 -7z m240 -270 c34 -99 33 -104 -29 -102 -29 1 -56 3 -60 6 -6
3 21 92 47 156 10 24 15 18 42 -60z"/>
<path d="M6830 5190 c0 -33 4 -60 10 -60 6 0 10 -9 10 -19 0 -16 8 -20 38 -23
l37 -3 0 -200 0 -200 -47 -3 -48 -3 0 -55 c0 -29 5 -54 10 -54 6 0 10 -11 10
-25 l0 -26 148 3 147 3 3 51 c2 36 -1 54 -12 63 -8 7 -12 19 -10 26 4 8 -3 15
-18 17 -21 3 -23 8 -23 63 l0 60 37 3 c47 4 57 -2 102 -61 35 -45 45 -68 29
-66 -46 7 -53 0 -53 -56 0 -30 5 -55 10 -55 6 0 10 -11 10 -25 l0 -25 170 0
170 0 0 60 c0 33 -4 60 -10 60 -5 0 -10 9 -10 20 0 17 -7 20 -49 20 -32 0 -56
6 -70 18 -24 20 -141 181 -141 194 0 5 34 51 75 103 l76 95 54 0 55 0 0 54 c0
39 -4 55 -15 60 -8 3 -15 15 -15 26 0 20 -4 20 -147 18 l-148 -3 -3 -49 c-2
-27 2 -54 7 -59 20 -20 11 -58 -26 -113 -37 -53 -68 -72 -98 -60 -13 4 -15 19
-13 63 3 57 3 58 36 61 32 3 32 4 32 58 0 30 -4 54 -9 54 -5 0 -11 10 -13 23
-3 22 -6 22 -150 25 l-148 3 0 -61z"/>
</g>
</svg>
